<svg xmlns="http://www.w3.org/2000/svg" width="24.958" height="22.18" viewBox="0 0 24.958 22.18"><path d="M17.445,3.608l3.908,3.908a.424.424,0,0,1,0,.6L11.89,17.577l-4.021.446a.843.843,0,0,1-.932-.932l.446-4.021,9.463-9.463A.424.424,0,0,1,17.445,3.608Zm7.019-.992L22.349.5a1.7,1.7,0,0,0-2.392,0L18.424,2.035a.424.424,0,0,0,0,.6l3.908,3.908a.424.424,0,0,0,.6,0l1.534-1.534a1.7,1.7,0,0,0,0-2.392ZM16.639,15v4.411H2.773V5.549H12.73A.533.533,0,0,0,13.1,5.4l1.733-1.733a.52.52,0,0,0-.368-.888H2.08A2.08,2.08,0,0,0,0,4.856V20.108a2.08,2.08,0,0,0,2.08,2.08H17.332a2.08,2.08,0,0,0,2.08-2.08V13.27a.521.521,0,0,0-.888-.368L16.79,14.635A.533.533,0,0,0,16.639,15Z" transform="translate(0 -0.007)"/></svg>